<?xml version="1.0" encoding="UTF-8"?><svg id="Layer_1" xmlns="http://www.w3.org/2000/svg" viewBox="0 0 288 198.71"><defs><style>.cls-1{fill:#fff;}</style></defs><path class="cls-1" d="M211.05,131.03c-1.08.99-2.2,1.96-3.38,2.89-4.66,3.73-10.04,7.04-16.02,9.84h-96.88c-5.98-2.8-11.36-6.12-16.02-9.84-1.17-.94-2.3-1.9-3.38-2.89h135.67Z"/><path class="cls-1" d="M159.44,105.57v-12.74h66.57c-.52-2.91-1.37-5.73-2.55-8.48-.62-1.44-1.33-2.86-2.12-4.25h-61.9v-12.74h51.55c-1.05-.98-2.17-1.92-3.31-2.84-4.69-3.75-10.11-7.08-16.13-9.89h-32.11v-9.1c-1.19-.15-2.38-.29-3.59-.4-1.81-.19-3.63-.33-5.47-.43-.13,0-.25,0-.39-.02-2.23-.12-4.5-.18-6.79-.18-1.42,0-2.83.03-4.24.08l.51,1.55h3.73l-3.01,2.19,1.15,3.55-3.01-2.19-3.02,2.19,1.16-3.55-3.02-2.19h3.73l.49-1.51c-.41.02-.83.04-1.24.06-.12,0-.25.02-.38.02-4.87.27-9.61.82-14.21,1.62l-2.76,2.01,1.16,3.55-3.02-2.19-3.02,2.19,1.16-3.55-.72-.52c-5.17,1.24-10.11,2.81-14.74,4.66-1.24.5-2.46,1.02-3.65,1.55-.44.2-.88.4-1.31.59,0,0-.03.02-.05.03-1.42.66-2.81,1.36-4.15,2.07-.96.51-1.9,1.04-2.82,1.57l.66,2.02-1.83-1.33c-.82.5-1.63,1.01-2.42,1.53-.79.52-1.56,1.04-2.33,1.58-.1.08-.22.16-.32.24-.7.5-1.37,1.01-2.04,1.53h.24l-2.39,1.74-.62.45.02.07.41,1.27.72,2.21-2.78-2.02c-.53.48-1.04.98-1.54,1.48-.03.03-.07.06-.09.09h0c-.85.84-1.65,1.69-2.43,2.57-.17.19-.34.39-.51.57-.61.72-1.21,1.43-1.77,2.17-.65.85-1.28,1.71-1.87,2.59l.44,1.35-.9-.65c-.11.16-.22.33-.32.49-.4.62-.77,1.25-1.13,1.89-.44.77-.86,1.55-1.24,2.34-.31.63-.6,1.27-.88,1.9-.89,2.07-1.6,4.2-2.11,6.36h2.41l1.15-3.55,1.16,3.55h3.73l-2.91,2.12-.11.08,1.16,3.55-3.02-2.19-3.01,2.19,1.15-3.55-.1-.08-1.78-1.29c-.09.42-.18.86-.25,1.29-.08.47-.16.95-.23,1.43-.23,1.64-.34,3.29-.34,4.96s.11,3.32.34,4.96c.07.46.13.92.22,1.38.19,1.08.43,2.17.72,3.23h2.15l1.04-3.23.1-.32.1.32,1.05,3.23h3.73l-3.02,2.19,1.16,3.55-3.02-2.19-1.68,1.21.23.54s0,0,0,.02c.61,1.41,1.31,2.81,2.08,4.18,0,0,0,.02.02.03h94.36v-.03h61.92c.78-1.37,1.48-2.78,2.09-4.2,1.19-2.76,2.04-5.61,2.56-8.53h-66.58ZM78,105.98l-3.01-2.18-3.02,2.18,1.16-3.54-3.02-2.19h3.73l1.16-3.55,1.15,3.55h3.74l-3.02,2.19,1.15,3.54ZM76.85,84.24l1.15,3.55-3.01-2.19-3.02,2.19,1.16-3.55-3.02-2.19h3.73l1.16-3.55,1.15,3.55h3.74l-3.02,2.19ZM88.56,114.54l-3.02-2.19-3.01,2.19,1.15-3.55-3.01-2.19h3.73l1.15-3.55,1.16,3.55h3.73l-3.02,2.19,1.16,3.55ZM87.4,92.91l1.16,3.55-3.02-2.19-3.01,2.19,1.15-3.55-3.01-2.19h3.73l1.15-3.55,1.16,3.55h3.73l-3.02,2.19ZM87.4,74.82l1.16,3.55-3.02-2.19-3.01,2.19,1.15-3.55-3.01-2.19h3.73l1.15-3.54,1.16,3.54h3.73l-3.02,2.19ZM99.11,105.98l-3.01-2.18-3.02,2.18,1.16-3.54-3.02-2.19h3.73l1.16-3.55,1.15,3.55h3.74l-3.02,2.19,1.15,3.54ZM97.97,84.24l1.15,3.55-3.01-2.19-3.02,2.19,1.16-3.55-3.02-2.19h3.73l1.16-3.55,1.15,3.55h3.74l-3.02,2.19ZM97.97,66.03l1.15,3.55-3.01-2.19-3.02,2.19,1.16-3.55-3.02-2.19h3.73l1.16-3.55,1.15,3.55h3.74l-3.02,2.19ZM109.68,115.03l-3.02-2.19-3.01,2.19,1.15-3.55-3.01-2.19h3.73l1.15-3.55,1.16,3.55h3.73l-3.02,2.19,1.16,3.55ZM108.52,93.4l1.16,3.55-3.02-2.19-3.01,2.19,1.15-3.55-3.01-2.19h3.73l1.15-3.55,1.16,3.55h3.73l-3.02,2.19ZM108.52,75.31l1.16,3.55-3.02-2.19-3.01,2.19,1.15-3.55-3.01-2.18h3.73l1.15-3.55,1.16,3.55h3.73l-3.02,2.18ZM108.52,57.24l1.16,3.55-3.02-2.19-3.01,2.19,1.15-3.55-3.01-2.19h3.73l1.15-3.55,1.16,3.55h3.73l-3.02,2.19ZM120.23,106.48l-3.01-2.19-3.02,2.19,1.16-3.55-3.02-2.19h3.73l1.16-3.55,1.15,3.55h3.73l-3.01,2.19,1.15,3.55ZM119.08,84.73l1.15,3.55-3.01-2.19-3.02,2.19,1.16-3.55-3.02-2.19h3.73l1.16-3.55,1.15,3.55h3.73l-3.01,2.19ZM119.08,66.52l1.15,3.55-3.01-2.19-3.02,2.19,1.16-3.55-3.02-2.19h3.73l1.16-3.55,1.15,3.55h3.73l-3.01,2.19ZM130.79,115.03l-3.02-2.19-3.01,2.19,1.15-3.55-3.02-2.19h3.74l1.15-3.55,1.16,3.55h3.73l-3.02,2.19,1.16,3.55ZM129.63,93.4l1.16,3.55-3.02-2.19-3.01,2.19,1.15-3.55-3.02-2.19h3.74l1.15-3.55,1.16,3.55h3.73l-3.02,2.19ZM129.63,75.31l1.16,3.55-3.02-2.19-3.01,2.19,1.15-3.55-3.02-2.18h3.74l1.15-3.55,1.16,3.55h3.73l-3.02,2.18ZM129.63,57.24l1.16,3.55-3.02-2.19-3.01,2.19,1.15-3.55-3.02-2.19h3.74l1.15-3.55,1.16,3.55h3.73l-3.02,2.19ZM141.35,106.48l-3.01-2.19-3.02,2.19,1.16-3.55-3.02-2.19h3.73l1.16-3.55,1.15,3.55h3.73l-3.01,2.19,1.15,3.55ZM140.2,84.73l1.15,3.55-3.01-2.19-3.02,2.19,1.16-3.55-3.02-2.19h3.73l1.16-3.55,1.15,3.55h3.73l-3.01,2.19ZM140.2,66.52l1.15,3.55-3.01-2.19-3.02,2.19,1.16-3.55-3.02-2.19h3.73l1.16-3.55,1.15,3.55h3.73l-3.01,2.19ZM151.91,115.03l-3.02-2.19-3.01,2.19,1.15-3.55-3.02-2.19h3.74l1.15-3.55,1.16,3.55h3.73l-3.02,2.19,1.16,3.55ZM150.75,93.4l1.16,3.55-3.02-2.19-3.01,2.19,1.15-3.55-3.02-2.19h3.74l1.15-3.55,1.16,3.55h3.73l-3.02,2.19ZM150.75,75.31l1.16,3.55-3.02-2.19-3.01,2.19,1.15-3.55-3.02-2.18h3.74l1.15-3.55,1.16,3.55h3.73l-3.02,2.18ZM150.75,57.24l1.16,3.55-3.02-2.19-3.01,2.19,1.15-3.55-3.02-2.19h3.74l1.15-3.55,1.16,3.55h3.73l-3.02,2.19Z"/><path class="cls-1" d="M47.79,71.18l-19.6-15.11,4.06-5.27,19.6,15.11-4.06,5.27ZM38.14,50.74l-3.66-2.82,7.01-9.09,3.66,2.82-7.01,9.09ZM45.86,56.69l-3.47-2.67,5.87-7.61,3.47,2.67-5.87,7.61Z"/><path class="cls-1" d="M66.17,49.17l-12.97-21.07,5.66-3.49,12.97,21.07-5.66,3.49ZM81.25,39.89c-.59-.3-1.14-.64-1.66-1.01-.52-.37-1.01-.79-1.47-1.25-.45-.47-.87-.94-1.25-1.43-.38-.48-.8-.88-1.25-1.18-.45-.3-.98-.47-1.6-.49-.61-.02-1.36.18-2.25.62-.32.17-.55.29-.69.34-.13.05-.25.11-.34.17-.07.04-.18.11-.32.2-.12.07-.34.21-.65.4l-2.26-3.83c.41-.25.81-.49,1.22-.73.4-.23.81-.48,1.22-.73.67-.41,1.21-.79,1.61-1.14.4-.34.67-.71.81-1.1.14-.39.14-.82,0-1.3-.14-.48-.43-1.07-.87-1.77-.35-.56-.69-.97-1.02-1.22-.34-.25-.69-.37-1.05-.37-.36,0-.76.1-1.19.3-.43.19-.89.45-1.4.76-.46.28-.9.57-1.33.86-.43.29-.87.57-1.3.84l-.14.09-2.46-4c.95-.56,1.89-1.13,2.82-1.72.93-.59,1.85-1.09,2.74-1.52.9-.43,1.78-.77,2.66-1.01.87-.25,1.72-.31,2.52-.18.81.13,1.59.45,2.35.98.76.53,1.47,1.33,2.13,2.42.32.52.55,1.13.7,1.83.15.7.17,1.41.07,2.13s-.33,1.41-.69,2.06c-.36.65-.89,1.19-1.59,1.62.14-.03.29-.07.43-.1.14-.03.29-.07.43-.1.85-.19,1.61-.15,2.31.11.69.26,1.33.64,1.92,1.14.59.5,1.13,1.03,1.62,1.62.49.58.96,1.1,1.4,1.54.55.57,1.13,1.05,1.75,1.43.62.38,1.3.73,2.06,1.04l-5.99,3.69Z"/><path class="cls-1" d="M93.97,33.49l-6.86-23.78,6.35-1.83,6.86,23.78-6.35,1.83ZM97.86,11.39l-1.27-4.41,11.27-3.25,1.27,4.41-11.27,3.25ZM100.45,20.38l-1.23-4.27,10.22-2.95,1.23,4.27-10.22,2.95ZM103.45,30.75l-1.27-4.41,11.56-3.34,1.27,4.41-11.56,3.34Z"/><path class="cls-1" d="M125.1,25.72l-1.15-24.72,6.6-.31,1.15,24.72-6.6.31ZM134.03,5.13l-.21-4.58,11.72-.54.21,4.58-11.72.54ZM134.46,14.47l-.21-4.44,10.62-.49.21,4.44-10.62.49ZM134.96,25.26l-.21-4.58,12.02-.56.21,4.58-12.02.56Z"/><path class="cls-1" d="M154.61,24.87l4.22-24.35,6.51,1.13-4.22,24.35-6.51-1.13ZM180.75,19.55c-.34.87-.79,1.7-1.36,2.49-1.09,1.51-2.13,2.65-3.13,3.42-.99.77-2.07,1.29-3.22,1.56-1.15.27-2.42.33-3.82.2s-3.04-.35-4.94-.66l.78-4.52c.31.05.62.11.94.18.32.07.63.13.94.18,1.64.28,2.91.34,3.82.16.9-.18,1.6-.57,2.07-1.16.48-.6.81-1.38,1.01-2.35.2-.97.4-2.09.63-3.37.18-1.02.24-1.99.18-2.91-.06-.92-.28-1.75-.69-2.48-.4-.74-1.01-1.38-1.84-1.93-.82-.55-1.91-.98-3.26-1.28-.27-.07-.47-.13-.57-.17-.11-.04-.3-.09-.58-.14l.8-4.59h.04s2.13.38,2.13.38c.39.07.67.12.83.16.16.04.31.08.43.13.12.05.25.1.4.18.15.07.41.18.79.31,1.7.63,3.13,1.42,4.32,2.38,1.18.96,2.11,2.02,2.78,3.19.67,1.17,1.11,2.43,1.32,3.79.21,1.36.19,2.76-.06,4.2-.16.9-.4,1.79-.74,2.67Z"/><path class="cls-1" d="M198.37,37.02c-.43-.21-.85-.42-1.25-.63-.4-.21-.79-.44-1.16-.71-1.53-1.06-2.69-2.24-3.5-3.54-.81-1.3-1.33-2.65-1.56-4.04-.23-1.4-.21-2.81.06-4.23.27-1.43.73-2.8,1.38-4.14.77-1.59,1.74-2.96,2.91-4.12s2.48-2.02,3.95-2.59c1.47-.56,3.09-.79,4.86-.69,1.77.11,3.66.62,5.66,1.55l-2.06,4.22-.02.03c-1.22-.46-2.29-.64-3.23-.54-.93.11-1.76.4-2.48.87s-1.34,1.09-1.87,1.86c-.53.76-1.01,1.59-1.45,2.48-.48.97-.85,1.89-1.14,2.76-.28.87-.39,1.71-.31,2.52.08.81.37,1.6.87,2.37s1.31,1.56,2.43,2.36l-2.1,4.2ZM215.93,36.55c-1.12,1.17-2.4,2.08-3.83,2.73-1.43.65-3,.97-4.71.96-1.71,0-3.51-.48-5.42-1.41l-.68-.34,2.06-4.22c1.29.39,2.38.56,3.29.51.91-.05,1.7-.29,2.37-.71.68-.42,1.27-.99,1.78-1.71s1-1.57,1.48-2.54c.46-.93.85-1.85,1.18-2.76s.49-1.8.46-2.68-.29-1.72-.79-2.53-1.36-1.57-2.58-2.3l2.08-4.25c3.92,2.28,6.32,4.89,7.21,7.82.89,2.94.51,6.1-1.14,9.48-.71,1.46-1.63,2.77-2.75,3.94Z"/><path class="cls-1" d="M220.25,48.27l19.05-15.74,3.97,4.8-19.05,15.74-3.97-4.8ZM243.72,56.19c-.26.11-.54.21-.84.31-.3.1-.59.2-.87.31-.28.1-.48.19-.61.26l-9.41,5.41-4.26-5.16,6.92-8.08c.09-.11.21-.3.37-.55.15-.26.31-.52.46-.8.15-.27.31-.53.46-.77s.27-.39.34-.45l8.73-7.22.19.23c-1.78,2.79-3.54,5.57-5.28,8.32-1.74,2.76-3.58,5.47-5.52,8.14,2.93-1.47,5.91-2.81,8.94-4.01,3.02-1.2,6.07-2.42,9.13-3.67l.32.39-8.57,7.08c-.07.06-.24.14-.5.25ZM235.53,66.75l19.05-15.74,3.94,4.77-19.05,15.74-3.94-4.77Z"/><path class="cls-1" d="M26.28,138.26l20.4-14.01,3.76,5.48-20.4,14.01-3.76-5.48ZM40.66,140.87l3.61-2.48,5.44,7.93-3.61,2.48-5.44-7.93ZM48.69,135.36l3.81-2.62,6.5,9.46-3.81,2.62-6.5-9.46Z"/><path class="cls-1" d="M62.97,176.24l1.47-5.45-5.39-3.82,3.88-2.7,2.72,1.88c.45-1.61.86-3.24,1.24-4.87.38-1.63.95-3.19,1.72-4.66-.46.4-.91.79-1.36,1.18-.45.39-.94.76-1.46,1.11l-13.65,9.67-6.15-4.36,22.61-14.27,6.22,4.41-5.77,26.19-6.09-4.31Z"/><path class="cls-1" d="M83.65,165.37l1.59-4.38,5.7,2.06-1.59,4.38-5.7-2.06ZM85.09,187.26l8.44-23.27,6.33,2.3-8.44,23.26-6.33-2.3ZM100.51,171.44l1.58-4.35,6.09,2.21-1.58,4.35-6.09-2.21Z"/><path class="cls-1" d="M112.94,195.43l3.91-24.4,6.57,1.05-3.91,24.4-6.57-1.05Z"/><path class="cls-1" d="M144.71,198.65c-.27.03-.54.05-.83.05-2.15.05-3.95-.27-5.42-.96-1.47-.69-2.66-1.61-3.58-2.78-.91-1.17-1.59-2.51-2.01-4.03-.43-1.52-.66-3.08-.69-4.68-.03-1.62.1-3.15.41-4.58.31-1.43.85-2.72,1.63-3.88.78-1.16,1.82-2.15,3.13-2.98s2.95-1.44,4.92-1.84c.67-.16,1.35-.24,2.03-.25.28,0,.49,0,.64.02l.1,4.66h-.04c-1.35.19-2.42.55-3.2,1.08-.78.52-1.37,1.16-1.78,1.91s-.66,1.6-.75,2.54c-.09.94-.13,1.93-.11,2.97.02,1.11.1,2.11.23,3.01.13.9.41,1.69.83,2.37.42.67,1.04,1.23,1.84,1.67.8.44,1.91.75,3.32.94l.1,4.69c-.25.03-.51.06-.78.09ZM153.25,181.2c-.37-1.26-.92-2.22-1.67-2.88-.75-.66-1.89-.99-3.41-1l-.1-4.73c.4.04.68.07.85.09.17.02.33.05.47.08.14.03.3.08.47.13.17.06.45.13.85.21,1.11.26,2.17.63,3.18,1.1,1.01.47,1.93,1.04,2.75,1.71.82.67,1.51,1.41,2.06,2.23.55.82.92,1.69,1.11,2.61l-6.56.46ZM160.05,197.68l-4.7.1-.4-2.96c-.44.48-.88.93-1.33,1.35-.44.42-.92.79-1.42,1.11-.5.32-1.05.58-1.64.78-.59.2-1.24.32-1.94.36l-.1-4.62c.99-.14,1.79-.34,2.4-.62.62-.27,1.12-.62,1.5-1.04.39-.42.71-.93.96-1.52.26-.59.5-1.29.74-2.1l-5.25.11-.1-4.45,11.22-.24.04,13.73Z"/><path class="cls-1" d="M181.44,193.87c-1.38,0-2.56-.26-3.53-.79-.97-.53-1.79-1.33-2.44-2.39-.66-1.06-1.21-2.39-1.67-4l-4.29-15.04,6.44-1.84,4.28,15.01c.2.7.39,1.32.57,1.86.18.54.44.97.76,1.29.33.32.76.54,1.31.65.55.11,1.28.09,2.2-.08l1.34,4.54c-1.94.53-3.59.79-4.97.79ZM197.39,184.17c.06,1.25-.16,2.37-.68,3.33-.52.97-1.36,1.82-2.53,2.56-1.17.74-2.76,1.43-4.78,2.08l-1.3-4.55v-.03c.99-.31,1.69-.68,2.1-1.12.41-.43.63-.92.66-1.46.04-.54-.05-1.11-.25-1.73-.21-.61-.4-1.26-.6-1.94l-4.1-14.36,6.48-1.85,4.18,14.67c.48,1.68.75,3.14.81,4.39Z"/><path class="cls-1" d="M216.25,180.87l-13.72-20.6,5.5-3.66,13.72,20.6-5.5,3.66ZM213.3,158.62l-2.54-3.82,9.77-6.51,2.54,3.82-9.77,6.51ZM218.48,166.41l-2.47-3.7,8.85-5.89,2.47,3.7-8.85,5.89ZM224.47,175.4l-2.54-3.82,10.01-6.67,2.54,3.82-10.01,6.67Z"/><path class="cls-1" d="M257.86,133.17c.43.72.72,1.5.89,2.35.16.85.19,1.75.09,2.69-.1.95-.32,1.87-.65,2.76-.14.38-.26.71-.36.98-.11.27-.22.52-.33.77-.12.24-.25.5-.39.76-.14.26-.31.56-.51.91l-3.87-2.53c.24-.41.45-.84.62-1.27.17-.43.27-.85.3-1.27.03-.42-.03-.8-.19-1.16s-.45-.67-.86-.94c-.57-.37-1.16-.47-1.78-.28s-1.25.55-1.92,1.1c-.66.54-1.36,1.2-2.09,1.97-.73.77-1.49,1.55-2.27,2.34-.78.79-1.59,1.53-2.43,2.23-.84.7-1.7,1.25-2.59,1.64-.89.4-1.81.58-2.76.55-.95-.03-1.94-.38-2.96-1.05-1.14-.75-1.97-1.59-2.49-2.54s-.78-1.96-.78-3.04c0-1.08.23-2.21.68-3.4.45-1.19,1.07-2.38,1.86-3.59l.14-.21,3.72,2.43c-.26.4-.49.8-.67,1.18-.18.39-.29.77-.33,1.15-.04.38.02.74.18,1.08.16.34.44.64.86.91.53.35,1.09.41,1.67.18.58-.23,1.2-.62,1.84-1.17.65-.56,1.32-1.23,2.02-2.02.7-.79,1.44-1.58,2.22-2.37.78-.79,1.6-1.53,2.46-2.21.86-.69,1.76-1.21,2.71-1.57.95-.36,1.94-.49,2.98-.4,1.04.09,2.13.51,3.27,1.25.71.46,1.28,1.06,1.71,1.77ZM243.8,131.77c-.58-.28-1.08-.5-1.51-.66-.43-.16-.83-.22-1.19-.17-.37.05-.73.21-1.09.48-.36.27-.78.71-1.25,1.31l-3.78-2.47.35-.48c1.32-1.8,2.81-3.14,4.48-4.01,1.66-.87,3.44-1.04,5.32-.52.34.09.67.21.98.36.32.16.64.29.96.4l-3.26,5.76ZM254.15,148.16c-.24.35-.51.7-.79,1.05-1.82,2.32-3.69,3.69-5.61,4.13-1.91.43-3.97-.01-6.16-1.35l3.4-5.72c.77.24,1.41.42,1.92.55.51.13.97.16,1.38.09.41-.07.82-.28,1.22-.64s.89-.91,1.46-1.65l3.92,2.51c-.25.34-.5.69-.74,1.04Z"/><path class="cls-1" d="M143.21,166.36c-17.34,0-34.86-3.12-50.82-10-7.54-3.25-14.75-7.37-21.2-12.47s-12.06-10.94-16.1-17.87c-3.25-5.59-5.75-11.42-6.93-17.82-1.49-8.04-.93-16.39,1.57-24.17,4.89-15.24,16.63-27.24,30.05-35.45,14.89-9.1,32.15-14.07,49.43-15.8,17.52-1.76,35.51-.3,52.39,4.78s31.65,13.1,42.93,25.72c5.82,6.51,10.37,14.2,12.72,22.64,2.37,8.49,2.43,17.54.15,26.05-4.59,17.19-17.86,30.51-32.94,39.17-14.58,8.38-31.22,12.98-47.9,14.58-4.44.43-8.9.63-13.37.63ZM93.31,147.85c13.91,6.5,29.4,9.66,44.69,10.26,15.85.62,31.94-1.51,46.9-6.9,14.15-5.09,27.89-13.34,36.92-25.61,4.71-6.39,7.96-13.86,8.86-21.79.91-8.01-.66-16.12-4.2-23.34-6.86-14.02-20.19-23.92-34.12-30.22s-29.17-9.39-44.38-9.93c-16.11-.58-32.44,1.69-47.57,7.32-12.94,4.82-25.45,12.32-34.23,23.16-4.53,5.6-7.99,12.09-9.62,19.13s-1.34,15.1,1.03,22.27c4.26,12.91,14.29,23.08,25.61,30.18,3.25,2.04,6.64,3.85,10.12,5.46Z"/><polygon class="cls-1" points="23.1 74.43 28.55 91.21 46.2 91.21 31.92 101.59 37.38 118.37 23.1 108 8.82 118.37 14.28 101.59 0 91.21 17.65 91.21 23.1 74.43"/><polygon class="cls-1" points="264.9 74.43 270.35 91.21 288 91.21 273.72 101.59 279.18 118.37 264.9 108 250.62 118.37 256.08 101.59 241.8 91.21 259.45 91.21 264.9 74.43"/></svg>